<!-- The icons are taken from https://github.com/lucide-icons/lucide -->

<svg xmlns="http://www.w3.org/2000/svg">
  <symbol id="flask" viewBox="0 0 24 24">
    <path d="M14 2v6a2 2 0 0 0 .245.96l5.51 10.08A2 2 0 0 1 18 22H6a2 2 0 0 1-1.755-2.96l5.51-10.08A2 2 0 0 0 10 8V2" />
    <path d="M6.453 15h11.094" />
    <path d="M8.5 2h7" />
  </symbol>

  <symbol id="atom" viewBox="0 0 24 24">
    <circle cx="12" cy="12" r="1" />
    <path d="M20.2 20.2c2.04-2.03.02-7.36-4.5-11.9-4.54-4.52-9.87-6.54-11.9-4.5-2.04 2.03-.02 7.36 4.5 11.9 4.54 4.52 9.87 6.54 11.9 4.5Z" />
    <path d="M15.7 15.7c4.52-4.54 6.54-9.87 4.5-11.9-2.03-2.04-7.36-.02-11.9 4.5-4.52 4.54-6.54 9.87-4.5 11.9 2.03 2.04 7.36.02 11.9-4.5Z" />
  </symbol>

  <symbol id="github" viewBox="0 0 24 24">
    <path d="M15 22v-4a4.8 4.8 0 0 0-1-3.5c3 0 6-2 6-5.5.08-1.25-.27-2.48-1-3.5.28-1.15.28-2.35 0-3.5 0 0-1 0-3 1.5-2.64-.5-5.36-.5-8 0C6 2 5 2 5 2c-.3 1.15-.3 2.35 0 3.5A5.403 5.403 0 0 0 4 9c0 3.5 3 5.5 6 5.5-.39.49-.68 1.05-.85 1.65-.17.6-.22 1.23-.15 1.85v4" />
    <path d="M9 18c-4.51 2-5-2-7-2" />
  </symbol>

  <symbol id="codepen" viewBox="0 0 24 24">
    <polygon points="12 2 22 8.5 22 15.5 12 22 2 15.5 2 8.5 12 2" />
    <line x1="12" x2="12" y1="22" y2="15.5" />
    <polyline points="22 8.5 12 15.5 2 8.5" />
    <polyline points="2 15.5 12 8.5 22 15.5" />
    <line x1="12" x2="12" y1="2" y2="8.5" />
  </symbol>

  <symbol id="email" viewBox="0 0 24 24">
    <rect width="20" height="16" x="2" y="4" rx="2" />
    <path d="m22 7-8.97 5.7a1.94 1.94 0 0 1-2.06 0L2 7" />
  </symbol>

  <symbol id="sun" viewBox="0 0 24 24">
    <circle cx="12" cy="12" r="4" />
    <path d="M12 2v2" />
    <path d="M12 20v2" />
    <path d="m4.93 4.93 1.41 1.41" />
    <path d="m17.66 17.66 1.41 1.41" />
    <path d="M2 12h2" />
    <path d="M20 12h2" />
    <path d="m6.34 17.66-1.41 1.41" />
    <path d="m19.07 4.93-1.41 1.41" />
  </symbol>

  <symbol id="moon" viewBox="0 0 24 24">
    <path d="M12 3a6 6 0 0 0 9 9 9 9 0 1 1-9-9Z" />
  </symbol>

  <symbol id="tags" viewBox="0 0 24 24">
    <path d="m15 5 6.3 6.3a2.4 2.4 0 0 1 0 3.4L17 19" />
    <path d="M9.586 5.586A2 2 0 0 0 8.172 5H3a1 1 0 0 0-1 1v5.172a2 2 0 0 0 .586 1.414L8.29 18.29a2.426 2.426 0 0 0 3.42 0l3.58-3.58a2.426 2.426 0 0 0 0-3.42z" />
    <circle cx="6.5" cy="9.5" r=".5" fill="currentColor" />
  </symbol>

  <symbol id="eye" viewBox="0 0 24 24">
    <path d="M2.062 12.348a1 1 0 0 1 0-.696 10.75 10.75 0 0 1 19.876 0 1 1 0 0 1 0 .696 10.75 10.75 0 0 1-19.876 0" />
    <circle cx="12" cy="12" r="3" />
  </symbol>
</svg>
